<?xml version="1.0" encoding="UTF-8" standalone="no"?>
<svg
   height="48"
   viewBox="0 -960 960 960"
   width="48"
   version="1.1"
   id="svg216"
   sodipodi:docname="favorite.svg"
   inkscape:version="1.2.2 (732a01da63, 2022-12-09)"
   xmlns:inkscape="http://www.inkscape.org/namespaces/inkscape"
   xmlns:sodipodi="http://sodipodi.sourceforge.net/DTD/sodipodi-0.dtd"
   xmlns="http://www.w3.org/2000/svg"
   xmlns:svg="http://www.w3.org/2000/svg">
  <defs
     id="defs220" />
  <sodipodi:namedview
     id="namedview218"
     pagecolor="#505050"
     bordercolor="#eeeeee"
     borderopacity="1"
     inkscape:showpageshadow="0"
     inkscape:pageopacity="0"
     inkscape:pagecheckerboard="0"
     inkscape:deskcolor="#505050"
     showgrid="false"
     inkscape:zoom="21.395833"
     inkscape:cx="21.055501"
     inkscape:cy="23.976631"
     inkscape:window-width="3440"
     inkscape:window-height="1377"
     inkscape:window-x="-8"
     inkscape:window-y="-8"
     inkscape:window-maximized="1"
     inkscape:current-layer="svg216" />
  <path
     d="M480-222 298-112q-11 7-22 6.5t-19-7.5q-8-6-12.5-15.5T243-151l48-208-161-141q-9-7-11.5-17.5t.5-20.5q3-10 11.5-17t20.5-8l213-18 82-197q5-11 14.5-16.5T480-800q10 0 19.5 5.5T514-778l83 197 212 18q12 1 20.5 8t11.5 17q3 10 .5 20.5T830-500L669-359l48 208q3 13-1.5 22.5T703-113q-8 7-19 7.5t-21-6.5L480-222Z"
     id="path214"
     style="fill:#ffffff" />
</svg>
