<?xml version="1.0" encoding="UTF-8" standalone="no"?>
<svg
   height="48"
   viewBox="0 -960 960 960"
   width="48"
   version="1.1"
   id="svg357"
   sodipodi:docname="next.svg"
   inkscape:version="1.2.2 (732a01da63, 2022-12-09)"
   xmlns:inkscape="http://www.inkscape.org/namespaces/inkscape"
   xmlns:sodipodi="http://sodipodi.sourceforge.net/DTD/sodipodi-0.dtd"
   xmlns="http://www.w3.org/2000/svg"
   xmlns:svg="http://www.w3.org/2000/svg">
  <defs
     id="defs361" />
  <sodipodi:namedview
     id="namedview359"
     pagecolor="#505050"
     bordercolor="#eeeeee"
     borderopacity="1"
     inkscape:showpageshadow="0"
     inkscape:pageopacity="0"
     inkscape:pagecheckerboard="0"
     inkscape:deskcolor="#505050"
     showgrid="false"
     inkscape:zoom="3.7822847"
     inkscape:cx="214.28847"
     inkscape:cy="-9.5180566"
     inkscape:window-width="3440"
     inkscape:window-height="1377"
     inkscape:window-x="-8"
     inkscape:window-y="-8"
     inkscape:window-maximized="1"
     inkscape:current-layer="svg357" />
  <path
     d="M722.825-221Q707-221 696.5-231.625T686-258v-445q0-14.75 10.675-25.375Q707.351-739 723.175-739 738-739 748.5-728.375T759-703v445q0 15.75-10.675 26.375Q737.649-221 722.825-221ZM258-261q-19 13-38 3.25T201-289v-382q0-21.872 19-31.436T258-700l275 190q16 11.111 16 30.056Q549-461 533-450L258-261Z"
     id="path355"
     style="fill:#ffffff" />
  <path
     style="fill:#ffffff"
     d="m 2426.6465,-261 q -19,13 -38,3.25 -19,-9.75 -19,-31.25 v -382 q 0,-21.872 19,-31.436 19,-9.564 38,2.436 l 275,190 q 16,11.111 16,30.056 0,18.944 -16,29.944 z"
     id="path596" />
  <path
     style="fill:#ffffff"
     d="m 2796.2909,-221 q -15.825,0 -26.325,-10.625 -10.5,-10.625 -10.5,-26.375 v -445 q 0,-14.75 10.675,-25.375 10.676,-10.625 26.5,-10.625 14.825,0 25.325,10.625 10.5,10.625 10.5,25.375 v 445 q 0,15.75 -10.675,26.375 -10.676,10.625 -25.5,10.625 z"
     id="path592" />
  <path
     style="fill:#ffffff"
     d="m 3690.4329,-261 q -19,13 -38,3.25 -19,-9.75 -19,-31.25 v -382 q 0,-21.872 19,-31.436 19,-9.564 38,2.436 l 275,190 q 16,11.111 16,30.056 0,18.944 -16,29.944 z"
     id="path598" />
  <path
     style="fill:#ffffff"
     d="m 4430.2239,-221 q -15.825,0 -26.325,-10.625 -10.5,-10.625 -10.5,-26.375 v -445 q 0,-14.75 10.675,-25.375 10.676,-10.625 26.5,-10.625 14.825,0 25.325,10.625 10.5,10.625 10.5,25.375 v 445 q 0,15.75 -10.675,26.375 -10.676,10.625 -25.5,10.625 z"
     id="path600" />
  <path
     style="fill:#ffffff"
     d="m 3975.9746,-261 q -19,13 -38,3.25 -19,-9.75 -19,-31.25 v -382 q 0,-21.872 19,-31.436 19,-9.564 38,2.436 l 275,190 q 16,11.111 16,30.056 0,18.944 -16,29.944 z"
     id="path604" />
</svg>
