<?xml version="1.0" encoding="UTF-8" standalone="no"?>
<svg
   height="48"
   viewBox="0 -960 960 960"
   width="48"
   version="1.1"
   id="svg142"
   sodipodi:docname="tag.svg"
   inkscape:version="1.2.2 (732a01da63, 2022-12-09)"
   xmlns:inkscape="http://www.inkscape.org/namespaces/inkscape"
   xmlns:sodipodi="http://sodipodi.sourceforge.net/DTD/sodipodi-0.dtd"
   xmlns="http://www.w3.org/2000/svg"
   xmlns:svg="http://www.w3.org/2000/svg">
  <defs
     id="defs146" />
  <sodipodi:namedview
     id="namedview144"
     pagecolor="#505050"
     bordercolor="#eeeeee"
     borderopacity="1"
     inkscape:showpageshadow="0"
     inkscape:pageopacity="0"
     inkscape:pagecheckerboard="0"
     inkscape:deskcolor="#505050"
     showgrid="false"
     inkscape:zoom="24.458333"
     inkscape:cx="23.979557"
     inkscape:cy="24"
     inkscape:window-width="3440"
     inkscape:window-height="1377"
     inkscape:window-x="-8"
     inkscape:window-y="-8"
     inkscape:window-maximized="1"
     inkscape:current-layer="svg142" />
  <path
     d="M568-85q-22 22-52.5 22T463-85L84-463q-12-12-16-25.5T64-516v-307q0-31 21-52t52-21h307q15 0 29 4.5t26 16.5l377 375q23 23 22.5 54T875-392L568-85ZM243-660q24 0 41.5-17.5T302-719q0-23-17.5-40.5T243-777q-24 0-41 17.5T185-719q0 24 17 41.5t41 17.5Z"
     id="path140"
     style="fill:#ffffff" />
</svg>
